<svg version="1.1" id="Layer_1" xmlns="http://www.w3.org/2000/svg" xmlns:xlink="http://www.w3.org/1999/xlink" x="0px" y="0px"
	 width="100%" viewBox="0 0 1153 1153" enable-background="new 0 0 1153 1153" xml:space="preserve">
<path fill="#4569FF" opacity="1.000000" stroke="none" 
	d="
M1.417633,1152.273438 
	C1.000000,769.880737 1.009755,387.761505 0.876258,5.642321 
	C0.874762,1.359611 2.025859,0.903795 5.856569,0.904819 
	C386.975891,1.006735 768.095276,1.007745 1149.214600,0.894579 
	C1153.193237,0.893398 1154.116333,1.582944 1154.114990,5.713497 
	C1153.991211,387.499725 1154.000000,769.286011 1154.000000,1151.536133 
	C1151.577148,1153.670776 1148.821411,1152.963013 1146.217407,1152.963867 
	C1037.390015,1153.001587 928.562622,1152.995972 819.735229,1152.995972 
	C549.750000,1152.995972 279.764740,1152.997559 9.779497,1152.977417 
	C7.131424,1152.977173 4.445861,1153.359619 1.417633,1152.273438 
z"/>
<path fill="#C8D8FF" opacity="1.000000" stroke="none" 
	d="
M1153.549438,1152.783447 
	C1153.781982,1153.307617 1154.505615,1154.042725 1153.499634,1154.010498 
	C1152.167603,1153.967773 1150.833374,1154.000000 1149.500000,1154.000000 
	C766.666687,1154.000000 383.833344,1154.000000 1.000000,1153.500000 
	C2.560034,1152.109497 4.265465,1152.528687 5.898717,1152.528564 
	C387.132874,1152.508179 768.367065,1152.508789 1149.601196,1152.509766 
	C1150.767334,1152.509766 1151.934082,1152.482300 1153.549438,1152.783447 
z"/>
<path fill="#4D69E4" opacity="1.000000" stroke="none" 
	d="
M1154.000000,1152.750000 
	C769.967285,1153.000000 385.934540,1153.000000 1.450905,1153.000000 
	C1.000000,1153.000000 1.000000,1152.500000 1.000000,1152.250000 
	C385.032715,1152.000000 769.065430,1152.000000 1153.549072,1152.000000 
	C1154.000000,1152.000000 1154.000000,1152.500000 1154.000000,1152.750000 
z"/>
<path fill="#FCFDFF" opacity="1.000000" stroke="none" 
	d="
M912.183594,456.000000 
	C912.183594,543.497437 911.863525,630.496826 912.414734,717.490784 
	C912.547913,738.506897 897.101379,756.368835 873.633484,756.335205 
	C683.139587,756.062256 492.645050,756.195557 302.150726,756.165833 
	C277.739868,756.162048 263.139160,741.307373 263.138214,716.742615 
	C263.134216,615.912292 263.134460,515.081970 263.137939,414.251617 
	C263.138794,389.901031 278.039581,374.995880 302.397186,374.995331 
	C492.724854,374.991058 683.052673,375.114716 873.379944,374.831604 
	C896.235962,374.797607 913.466614,391.851196 912.316162,414.009033 
	C911.599915,427.804474 912.183411,441.667389 912.183594,456.000000 
z"/>
<path fill="#466AFE" opacity="1.000000" stroke="none" 
	d="
M281.828613,395.952942 
	C285.618469,390.941528 290.593658,388.500549 296.448914,387.920532 
	C299.919342,387.576752 303.433655,387.588135 306.928223,387.587860 
	C495.258606,387.573517 683.588989,387.587097 871.919373,387.530182 
	C879.491150,387.527893 886.571594,388.533997 892.298645,393.964600 
	C897.406250,398.807892 899.810303,404.882141 899.811340,411.869965 
	C899.826477,514.368347 899.842163,616.866760 899.795288,719.365173 
	C899.789307,732.441833 891.347351,741.759277 878.409241,743.387207 
	C876.268433,743.656616 874.096985,743.803650 871.939697,743.803833 
	C682.442688,743.823120 492.945618,743.814331 303.448578,743.843506 
	C292.322876,743.845215 283.088257,740.702881 277.988342,729.495300 
	C276.631226,724.983948 276.477692,720.705566 276.479126,716.367310 
	C276.512024,616.486206 276.506836,516.605103 276.497223,416.723969 
	C276.496796,412.071228 276.315338,407.412781 277.779602,402.412415 
	C277.994568,401.964935 278.013336,401.998596 277.994629,402.003326 
	C278.436768,401.584167 278.492645,400.985931 278.822449,400.194397 
	C278.990845,399.955688 279.013153,399.998627 278.989319,400.002716 
	C279.613708,399.210297 280.123383,398.323212 280.801544,397.179474 
	C280.961487,396.917206 280.984711,396.983551 280.949768,396.987549 
	C281.222260,396.772827 281.487000,396.510406 281.828613,395.952942 
z"/>
<path fill="#526CD7" opacity="1.000000" stroke="none" 
	d="
M277.729279,402.245972 
	C275.743439,487.126343 277.636597,572.303650 277.025330,657.471375 
	C276.945312,668.620544 276.889374,679.772583 277.049500,690.919983 
	C277.228333,703.368164 276.180115,715.850830 277.965302,728.704346 
	C275.878174,726.081848 275.832611,722.571411 275.832184,719.080017 
	C275.819824,616.817444 275.823090,514.554871 275.810455,412.292297 
	C275.810028,408.932281 276.110870,405.646545 277.729279,402.245972 
z"/>
<path fill="#526CD7" opacity="1.000000" stroke="none" 
	d="
M280.681152,397.070435 
	C281.002808,398.105988 280.544495,399.043121 279.259583,399.859436 
	C279.443909,399.079102 279.922333,398.151367 280.681152,397.070435 
z"/>
<path fill="#526CD7" opacity="1.000000" stroke="none" 
	d="
M278.754456,400.142517 
	C278.817841,400.523132 278.644867,401.090576 278.223938,401.833069 
	C278.156677,401.448486 278.337402,400.888947 278.754456,400.142517 
z"/>
<path fill="#526CD7" opacity="1.000000" stroke="none" 
	d="
M281.689819,395.840149 
	C281.764465,396.029114 281.586395,396.362427 281.161560,396.843628 
	C281.088928,396.655853 281.263031,396.320190 281.689819,395.840149 
z"/>
<path fill="#FDFEFF" opacity="1.000000" stroke="none" 
	d="
M483.000000,492.841980 
	C491.992767,492.854492 500.491333,492.669952 508.977051,492.920593 
	C526.863647,493.448944 535.793945,504.888184 532.532471,522.558960 
	C529.940918,536.600281 521.883606,547.057983 511.197937,555.858459 
	C508.643097,557.962585 505.977692,559.932556 503.094910,562.172607 
	C507.391235,565.351746 511.638336,568.148682 515.493774,571.408752 
	C530.095581,583.755798 539.821472,598.686401 539.560181,618.627258 
	C539.372803,632.933594 530.740601,642.965271 516.515137,643.886230 
	C494.250916,645.327637 471.922058,645.171021 449.645416,643.910095 
	C439.520966,643.336975 433.987366,637.342163 432.983459,627.305908 
	C432.652832,624.000793 432.456573,620.667419 432.452759,617.346680 
	C432.415192,584.706970 432.431091,552.067261 432.432373,519.427551 
	C432.432434,518.095337 432.402374,516.761963 432.445740,515.431091 
	C432.982025,498.972290 439.019928,493.025085 455.522369,492.858276 
	C464.514038,492.767365 473.507416,492.842041 483.000000,492.841980 
z"/>
<path fill="#FEFEFF" opacity="1.000000" stroke="none" 
	d="
M642.569214,548.896973 
	C642.959412,556.696899 642.737732,564.199951 643.094849,571.675293 
	C643.286255,575.683228 641.714783,576.285828 638.212280,576.244995 
	C623.563477,576.073730 608.908630,576.336365 594.262573,576.071777 
	C589.985657,575.994568 589.021973,577.381165 589.064270,581.430664 
	C589.264160,600.574524 589.033386,619.723022 589.246338,638.866577 
	C589.293152,643.076599 588.467957,644.793274 583.829529,644.544067 
	C576.193176,644.133911 568.516846,644.332031 560.861389,644.482971 
	C557.917236,644.541016 556.785767,643.694458 556.792175,640.562500 
	C556.880005,597.775696 556.823914,554.988586 556.896790,512.201721 
	C556.907043,506.173279 558.694519,500.710358 563.865356,496.487488 
	C564.375183,495.617737 564.979309,495.521362 565.797363,495.197998 
	C566.043335,495.026825 566.008057,494.994141 566.007996,495.018219 
	C566.273438,494.708801 566.595276,494.441956 567.278320,494.284943 
	C567.590698,494.337036 567.827026,494.392761 567.912964,494.307007 
	C570.230835,492.900116 572.648315,492.378754 575.626953,492.682251 
	C598.166260,492.831512 620.304016,492.843781 642.937317,492.873688 
	C644.529541,501.977386 643.973145,511.083557 643.601624,520.646301 
	C627.611572,521.159363 611.785034,521.211609 595.511719,521.395142 
	C594.291016,522.053894 593.496460,522.532166 592.211060,522.739624 
	C591.896423,522.890015 591.943298,522.995972 591.936646,522.938477 
	C591.770264,523.179810 591.562561,523.441223 591.097290,523.800171 
	C590.881042,523.930054 590.997498,523.954468 590.944702,523.926941 
	C590.340637,525.049622 590.359619,526.390198 589.537659,527.780640 
	C589.322876,534.364685 589.259827,540.668701 589.263550,547.429077 
	C590.975098,549.078674 592.854370,548.460938 594.612000,548.473022 
	C610.473633,548.582275 626.336304,548.393127 642.569214,548.896973 
z"/>
<path fill="#FEFEFF" opacity="1.000000" stroke="none" 
	d="
M679.646118,492.682007 
	C702.166382,492.831238 724.304138,492.843628 746.937439,492.873718 
	C748.529419,501.977417 747.973206,511.083557 747.601624,520.646362 
	C731.612549,521.157715 715.786926,521.208313 699.513794,521.386902 
	C698.295898,522.048523 697.503662,522.530762 696.225037,522.756348 
	C695.917786,522.921570 695.973633,522.995483 695.963135,522.950378 
	C695.787781,523.198975 695.575989,523.453674 695.112061,523.811218 
	C694.906799,523.953003 694.995239,523.982666 694.959595,523.952515 
	C694.190613,525.351868 694.227966,526.997437 693.488159,528.769897 
	C693.283752,535.038330 693.240295,541.007263 693.263855,547.432495 
	C694.977661,549.075012 696.856079,548.461182 698.614380,548.473267 
	C714.475281,548.582581 730.337158,548.392273 746.567139,548.900146 
	C746.956177,556.700928 746.735779,564.202332 747.093384,571.676025 
	C747.284973,575.679321 745.723328,576.286438 742.216187,576.245728 
	C727.404053,576.073730 712.586914,576.303040 697.775940,576.084717 
	C693.941711,576.028198 693.043579,577.263794 693.075256,580.916016 
	C693.242554,600.222900 692.978760,619.534668 693.276001,638.838440 
	C693.349976,643.640869 691.749634,644.709900 687.361877,644.520386 
	C680.051636,644.204529 672.713989,644.292725 665.395813,644.496887 
	C662.048889,644.590210 660.764709,643.716003 660.774475,640.098755 
	C660.887756,597.986938 660.829529,555.874695 660.867981,513.762573 
	C660.873901,507.244751 662.264343,501.181213 667.879028,496.522858 
	C668.366089,495.625977 668.973999,495.522064 669.812256,495.213104 
	C670.070007,495.053833 670.014832,495.006317 670.020752,495.042236 
	C672.899048,493.480377 675.894287,492.330597 679.646118,492.682007 
z"/>
<path fill="#FCFDFF" opacity="1.000000" stroke="none" 
	d="
M317.983368,487.845367 
	C310.653595,487.844788 303.819916,487.904907 296.987915,487.823425 
	C292.043854,487.764465 289.164398,485.283386 289.167725,481.335571 
	C289.171082,477.356873 291.983704,475.023132 297.041992,475.008972 
	C310.874512,474.970306 324.707153,474.984955 338.539764,474.999329 
	C345.766022,475.006836 347.571960,476.826843 347.574524,484.265076 
	C347.590912,531.929199 347.583801,579.593323 347.583832,627.257446 
	C347.583832,634.090393 347.638489,640.924011 347.562653,647.756165 
	C347.489899,654.314026 345.676544,656.147644 339.249695,656.163147 
	C323.417297,656.201294 307.584717,656.194336 291.752289,656.167175 
	C286.699097,656.158508 283.742676,653.904785 283.599518,650.114746 
	C283.444916,646.023193 286.416626,643.458435 291.738892,643.422119 
	C303.071106,643.344788 314.404205,643.412964 325.736908,643.388245 
	C333.111847,643.372192 334.827515,641.652466 334.829407,634.237122 
	C334.840912,588.572876 334.840698,542.908630 334.832550,497.244415 
	C334.831177,489.525970 333.157959,487.869995 325.479858,487.846436 
	C323.146667,487.839294 320.813385,487.845398 317.983368,487.845367 
z"/>
<path fill="#F9FCFF" opacity="1.000000" stroke="none" 
	d="
M827.850464,479.476013 
	C829.990784,475.791473 832.836609,474.888580 836.510742,474.928955 
	C850.331299,475.080841 864.154419,474.975677 877.976624,474.994843 
	C883.323425,475.002228 886.335327,477.300934 886.390259,481.314331 
	C886.445618,485.352722 883.431824,487.804443 878.102722,487.835510 
	C868.277710,487.892761 858.451782,487.814270 848.626709,487.869507 
	C842.813232,487.902161 840.884155,489.825256 840.880920,495.704742 
	C840.854858,542.333801 840.854553,588.962830 840.884277,635.591858 
	C840.887939,641.397827 842.851501,643.329651 848.724487,643.363403 
	C859.881775,643.427551 871.039673,643.378174 882.197327,643.387268 
	C883.527710,643.388306 884.887451,643.296509 886.182861,643.529724 
	C889.990112,644.215149 892.226257,646.565186 891.895447,650.453613 
	C891.588562,654.061035 889.276855,656.150574 885.529602,656.157532 
	C868.543457,656.189087 851.557129,656.161804 834.570923,656.183594 
	C831.771423,656.187195 829.826477,654.921692 828.301514,652.241638 
	C827.341370,651.122742 827.510193,650.090881 827.510925,649.108765 
	C827.553345,592.703979 827.403809,536.299072 827.850464,479.476013 
z"/>
<path fill="#F8FBFF" opacity="1.000000" stroke="none" 
	d="
M582.824890,413.002502 
	C582.827087,408.178070 582.886780,403.852020 582.813721,399.528198 
	C582.753967,395.987579 584.139099,393.470551 587.869019,393.565735 
	C591.511719,393.658630 592.884399,396.197998 592.879395,399.702148 
	C592.848328,421.493927 592.866333,443.285828 592.862488,465.077667 
	C592.861816,468.545624 591.479980,471.035950 587.698486,471.011108 
	C583.807251,470.985535 582.809631,468.326263 582.815796,464.903992 
	C582.846558,447.769989 582.826904,430.635925 582.824890,413.002502 
z"/>
<path fill="#F8FBFF" opacity="1.000000" stroke="none" 
	d="
M592.868896,729.744507 
	C592.854126,731.372498 592.946472,732.550293 592.804993,733.699402 
	C592.418396,736.840454 590.496094,738.576294 587.413635,738.343384 
	C584.628601,738.133057 582.866638,736.427063 582.851685,733.398071 
	C582.833679,729.736938 582.827087,726.075623 582.826660,722.414429 
	C582.824341,704.440613 582.838806,686.466797 582.814697,668.492981 
	C582.809814,664.851440 582.700928,660.990967 587.729065,660.952759 
	C592.666504,660.915283 592.878235,664.666260 592.875854,668.370117 
	C592.862732,688.673828 592.869385,708.977600 592.868896,729.744507 
z"/>
<path fill="#546BC9" opacity="1.000000" stroke="none" 
	d="
M827.810425,479.334839 
	C828.103821,536.385925 828.087158,593.714111 828.068115,651.507080 
	C826.529541,650.694092 826.988098,648.919983 826.987549,647.312561 
	C826.967651,592.712524 826.967957,538.112549 826.994141,483.512512 
	C826.994751,482.212250 827.324219,480.912109 827.810425,479.334839 
z"/>
<path fill="#667EE6" opacity="1.000000" stroke="none" 
	d="
M747.772522,520.930969 
	C747.477173,512.017151 747.516296,502.927124 747.494141,493.364227 
	C747.819702,493.189270 748.531006,493.471680 748.546082,493.787292 
	C748.974976,502.783997 749.832275,511.793030 747.772522,520.930969 
z"/>
<path fill="#667EE6" opacity="1.000000" stroke="none" 
	d="
M643.772461,520.930969 
	C643.477173,512.017151 643.516235,502.927124 643.494080,493.364197 
	C643.819580,493.189270 644.530701,493.471680 644.545837,493.787415 
	C644.976685,502.784119 645.828918,511.793030 643.772461,520.930969 
z"/>
<path fill="#667EE6" opacity="1.000000" stroke="none" 
	d="
M642.665039,548.891113 
	C626.970642,549.164062 611.000977,549.135193 595.031433,549.064392 
	C593.222107,549.056396 591.413757,548.812561 589.467651,548.281738 
	C605.229004,547.933594 621.127808,547.968445 637.026306,548.048584 
	C638.818481,548.057617 640.678406,547.645142 642.665039,548.891113 
z"/>
<path fill="#667EE6" opacity="1.000000" stroke="none" 
	d="
M746.662476,548.895508 
	C730.968567,549.167969 715.001099,549.137146 699.033752,549.064697 
	C697.224548,549.056519 695.416443,548.813843 693.469360,548.284424 
	C709.229492,547.935913 725.128113,547.969360 741.026550,548.048645 
	C742.818420,548.057556 744.678711,547.643616 746.662476,548.895508 
z"/>
<path fill="#667EE6" opacity="1.000000" stroke="none" 
	d="
M679.718994,492.605896 
	C676.953613,493.553619 673.878662,494.288391 670.415161,495.050659 
	C672.512207,491.939758 675.837097,491.734192 679.718994,492.605896 
z"/>
<path fill="#667EE6" opacity="1.000000" stroke="none" 
	d="
M575.724609,492.607910 
	C573.624390,493.273438 571.220276,493.727692 568.407471,494.201599 
	C569.987244,491.637909 572.640869,491.760620 575.724609,492.607910 
z"/>
<path fill="#667EE6" opacity="1.000000" stroke="none" 
	d="
M693.655273,528.930908 
	C692.988586,527.339661 693.650146,525.822693 694.631836,524.117004 
	C694.847473,525.591492 695.548279,527.410767 693.655273,528.930908 
z"/>
<path fill="#667EE6" opacity="1.000000" stroke="none" 
	d="
M589.700928,527.929443 
	C589.080444,526.636719 589.770081,525.452759 590.600342,524.065918 
	C590.936462,525.274658 591.345520,526.731750 589.700928,527.929443 
z"/>
<path fill="#667EE6" opacity="1.000000" stroke="none" 
	d="
M592.219604,522.926514 
	C592.370544,521.731628 593.559265,521.868958 594.760864,521.502319 
	C594.662292,522.774475 593.680420,523.005554 592.219604,522.926514 
z"/>
<path fill="#667EE6" opacity="1.000000" stroke="none" 
	d="
M696.240234,522.952393 
	C696.419556,521.831055 697.550293,521.844849 698.763794,521.493896 
	C698.675110,522.760376 697.694702,523.001099 696.240234,522.952393 
z"/>
<path fill="#667EE6" opacity="1.000000" stroke="none" 
	d="
M565.728394,495.037048 
	C565.579651,495.386841 565.115967,495.746857 564.357544,496.164856 
	C564.513000,495.830963 564.963257,495.439117 565.728394,495.037048 
z"/>
<path fill="#667EE6" opacity="1.000000" stroke="none" 
	d="
M669.750977,495.059998 
	C669.601868,495.411407 669.133728,495.768982 668.369507,496.192017 
	C668.526306,495.860352 668.979126,495.463226 669.750977,495.059998 
z"/>
<path fill="#667EE6" opacity="1.000000" stroke="none" 
	d="
M591.122681,523.831543 
	C591.053894,523.624573 591.226685,523.319031 591.664673,522.947266 
	C591.741333,523.164978 591.552734,523.448975 591.122681,523.831543 
z"/>
<path fill="#667EE6" opacity="1.000000" stroke="none" 
	d="
M695.144043,523.849670 
	C695.075439,523.642883 695.244080,523.332764 695.682739,522.963989 
	C695.762207,523.185669 695.571777,523.466003 695.144043,523.849670 
z"/>
<path fill="#667EE6" opacity="1.000000" stroke="none" 
	d="
M567.282532,494.332825 
	C567.265198,494.561157 566.939697,494.785339 566.311035,495.025879 
	C566.330078,494.804413 566.652222,494.566559 567.282532,494.332825 
z"/>
<path fill="#496CFA" opacity="1.000000" stroke="none" 
	d="
M464.994141,600.958374 
	C464.994141,591.501831 464.994141,582.537964 464.994141,572.848755 
	C479.800720,578.812195 493.132660,585.773071 501.914520,599.215942 
	C503.588409,601.778259 504.426178,604.706787 504.466980,607.708984 
	C504.527832,612.188354 502.658783,615.593445 497.795013,616.119080 
	C488.861755,617.084229 479.890076,616.794983 470.942291,616.281677 
	C467.487274,616.083496 465.537445,613.800171 465.241028,610.412781 
	C464.981018,607.441101 465.063141,604.439514 464.994141,600.958374 
z"/>
<path fill="#486AFA" opacity="1.000000" stroke="none" 
	d="
M464.998291,539.015564 
	C465.029205,535.025452 464.964294,531.527588 465.115082,528.039062 
	C465.308380,523.566345 467.448792,520.850159 472.227539,520.838440 
	C479.210205,520.821228 486.201752,520.600647 493.172455,520.884644 
	C497.845184,521.075012 499.557892,523.802856 498.538452,528.348022 
	C497.867432,531.339844 496.337402,533.896545 494.367310,536.203613 
	C486.455719,545.468201 476.153107,551.461487 464.998291,558.037537 
	C464.998291,551.300171 464.998291,545.406067 464.998291,539.015564 
z"/>
</svg>