<?xml version="1.0" standalone="no"?>
<!DOCTYPE svg PUBLIC "-//W3C//DTD SVG 20010904//EN"
 "http://www.w3.org/TR/2001/REC-SVG-20010904/DTD/svg10.dtd">
<svg version="1.0" xmlns="http://www.w3.org/2000/svg"
 width="512.000000pt" height="512.000000pt" viewBox="0 0 512.000000 512.000000"
 preserveAspectRatio="xMidYMid meet">
<metadata>
Created by potrace 1.16, written by Peter Selinger 2001-2019
</metadata>
<g transform="translate(0.000000,512.000000) scale(0.100000,-0.100000)"
fill="#000000" stroke="none">
<path d="M0 2560 l0 -2560 2560 0 2560 0 0 2560 0 2560 -2560 0 -2560 0 0
-2560z m3970 877 c30 -16 51 -37 67 -67 l23 -44 -2 -731 -3 -732 -28 -36 c-55
-72 58 -67 -1420 -67 l-1334 0 -34 23 c-19 12 -44 42 -57 67 l-22 45 2 726 3
725 25 37 c14 21 43 46 65 57 39 20 61 20 1356 20 l1316 0 43 -23z"/>
<path d="M1286 3385 c-58 -31 -55 10 -56 -777 l0 -727 24 -28 24 -28 1327 -3
1326 -2 30 29 29 29 0 727 c0 501 -3 733 -11 747 -27 49 14 48 -1371 48 -1136
0 -1297 -2 -1322 -15z m1342 -17 c8 -8 12 -60 12 -169 0 -132 -3 -159 -16
-170 -14 -11 -18 -10 -30 6 -11 14 -14 57 -14 170 0 142 6 175 30 175 3 0 11
-5 18 -12z m-1092 -365 c11 -12 14 -82 14 -389 0 -240 -4 -382 -10 -395 -10
-17 -22 -19 -138 -19 -86 0 -132 4 -140 12 -16 16 -15 23 4 42 12 12 38 16
115 16 l99 0 -2 338 -3 337 -95 5 c-84 4 -95 7 -98 24 -7 37 25 47 137 45 72
-2 107 -7 117 -16z m2385 7 c13 -7 19 -19 17 -33 -3 -20 -10 -22 -98 -27 l-95
-5 -3 -337 -2 -338 98 0 c110 0 146 -14 126 -47 -10 -16 -27 -18 -145 -18
l-134 0 -3 399 c-2 290 1 402 9 407 19 11 207 11 230 -1z m-1629 -80 c106 -30
103 -172 -6 -267 l-43 -37 55 -51 c66 -60 102 -130 102 -198 0 -42 -5 -54 -33
-82 -42 -42 -81 -48 -260 -44 -127 4 -137 5 -161 28 l-26 24 0 292 c0 367 -16
341 215 344 66 0 137 -4 157 -9z m568 -60 l0 -69 -117 -3 -118 -3 -3 -52 -3
-52 118 -3 118 -3 3 -62 3 -63 -121 0 -120 0 0 -155 0 -155 -75 0 -75 0 0 314
c0 405 -21 372 238 375 l152 1 0 -70z m465 0 l0 -65 -115 -3 c-76 -2 -117 -7
-122 -15 -4 -7 -8 -31 -8 -54 l0 -43 120 0 120 0 0 -65 0 -65 -120 0 -120 0 0
-155 0 -155 -75 0 -75 0 0 305 c0 341 3 356 63 374 17 5 100 9 182 8 l150 -2
0 -65z m-696 -694 c8 -9 11 -64 9 -172 -3 -146 -4 -159 -22 -162 -10 -2 -22 2
-27 10 -14 21 -11 312 3 326 15 15 23 15 37 -2z"/>
<path d="M2070 2480 l0 -90 79 0 c61 0 80 3 85 15 14 37 -44 105 -121 144
l-43 21 0 -90z"/>
</g>
</svg>
